<?xml version="1.0" encoding="utf-8"?>
<!-- Generator: Adobe Illustrator 19.2.0, SVG Export Plug-In . SVG Version: 6.00 Build 0)  -->
<svg version="1.1" id="Layer_1" xmlns="http://www.w3.org/2000/svg" xmlns:xlink="http://www.w3.org/1999/xlink" x="0px" y="0px"
	 viewBox="0 0 17.5 17.4" style="enable-background:new 0 0 17.5 17.4;" xml:space="preserve">
<style type="text/css">
	.st0{fill:#243343;}
</style>
<g>
	<path class="st0" d="M14.7,0H2.8C1.2,0,0,1.3,0,2.8v8.7c0,1.5,1.3,2.8,2.8,2.8h7.5c1.1,0,2.2,0.4,3,1.2l1.7,1.6
		c0.3,0.3,0.7,0.4,1,0.4c0.9,0,1.5-0.7,1.5-1.5v-13C17.5,1.2,16.2,0,14.7,0z M15.7,15.3l-1.3-1.2c-1.1-1.1-2.6-1.6-4.2-1.6H2.8
		c-0.6,0-1-0.5-1-1V2.8c0-0.6,0.5-1,1-1h11.9c0.6,0,1,0.5,1,1L15.7,15.3L15.7,15.3z"/>
	<path class="st0" d="M10.5,7.5H7c-0.2,0-0.4,0.2-0.4,0.4c0.2,1,1,1.7,2.1,1.7s1.9-0.7,2.1-1.7C10.9,7.7,10.7,7.5,10.5,7.5z"/>
	<circle class="st0" cx="12.9" cy="6" r="0.9"/>
	<circle class="st0" cx="4.6" cy="6" r="0.9"/>
</g>
</svg>
