<?xml version="1.0" encoding="utf-8"?>
<!-- Generator: Adobe Illustrator 19.2.0, SVG Export Plug-In . SVG Version: 6.00 Build 0)  -->
<svg version="1.1" xmlns="http://www.w3.org/2000/svg" xmlns:xlink="http://www.w3.org/1999/xlink" x="0px" y="0px"
	 viewBox="0 0 931.2 299.6" style="enable-background:new 0 0 931.2 299.6;" xml:space="preserve">
<style type="text/css">
	.st0{fill:none;}
	.st1{enable-background:new    ;}
	.st2{fill:#FFFFFF;}
	.st3{fill:#1D2936;}
</style>
<g id="Layer_2">
</g>
<g id="Layer_1">
	<rect x="157.8" y="21.5" class="st0" width="773.4" height="167.1"/>
	<g class="st1">
		<path class="st2" d="M207.7,58c-3,2.5-4.5,5.7-4.5,9.8c0,4.1,1.8,7.3,5.5,9.7c3.7,2.4,12.1,5.2,25.4,8.5
			c13.3,3.3,23.6,8.2,30.9,14.7c7.3,6.5,11,16.1,11,28.6c0,12.5-4.7,22.7-14.1,30.5c-9.4,7.8-21.8,11.7-37.1,11.7
			c-22.1,0-42.1-8.2-59.8-24.6l18.6-22.8c15.1,13.2,29,19.8,41.8,19.8c5.7,0,10.2-1.2,13.5-3.7c3.3-2.5,4.9-5.8,4.9-10
			s-1.7-7.5-5.2-10c-3.5-2.5-10.3-5-20.6-7.5c-16.3-3.9-28.2-8.9-35.7-15.1c-7.5-6.2-11.3-15.9-11.3-29.2c0-13.3,4.8-23.5,14.3-30.7
			c9.5-7.2,21.4-10.8,35.7-10.8c9.3,0,18.7,1.6,28,4.8c9.3,3.2,17.5,7.7,24.4,13.6l-15.8,22.8C245.5,58.9,233,54.3,220,54.3
			C214.8,54.3,210.7,55.5,207.7,58z"/>
		<path class="st2" d="M302.6,30.1h31.2v57.4l52.8-57.4h38.6l-55.6,61.8c4.8,6.7,13.7,19.1,26.6,37.3c12.9,18.2,22.6,31.8,29,40.7
			h-36.4l-41-55.2l-14,15.6v39.6h-31.2V30.1z"/>
		<path class="st2" d="M545.4,30.1v27.8h-69.6v28.8h62.6v26.6h-62.6v29h71.8v27.6h-103V30.1H545.4z"/>
		<path class="st2" d="M700.6,81.9l-37.8,76.4h-18.6l-37.6-76.4v88h-31.2V30.1h42.2l36,76.8l36.2-76.8h42v139.8h-31.2V81.9z"/>
		<path class="st2" d="M865.8,169.9l-13-30.2h-58.6l-13,30.2H748l60.4-139.8h30.2L899,169.9H865.8z M823.6,71.7L806,112.3h35
			L823.6,71.7z"/>
	</g>
	<rect x="161.8" y="185.5" class="st0" width="753.9" height="87.5"/>
	<g class="st1">
		<path class="st2" d="M228.7,231.7h13.6v27.5c-7.6,8.4-18.4,12.5-32.5,12.5c-11.9,0-21.8-3.9-29.8-11.7c-8-7.8-12-17.7-12-29.7
			c0-12,4.1-21.9,12.2-29.9c8.2-8,18-12,29.6-12c11.6,0,21.2,3.4,28.9,10.1l-7.2,10.3c-3.1-2.7-6.3-4.5-9.5-5.6
			c-3.2-1-6.9-1.6-11.1-1.6c-8.1,0-15,2.6-20.5,7.9c-5.5,5.3-8.3,12.2-8.3,20.7c0,8.5,2.7,15.4,8,20.6c5.4,5.2,11.9,7.8,19.5,7.8
			c7.6,0,14-1.6,19.1-4.9V231.7z"/>
		<path class="st2" d="M316.5,190.4v12.8h-42.9v21.3h38.5v12.1h-38.5v21.5h44.3v12.8h-57.8v-80.4H316.5z"/>
		<path class="st2" d="M395.5,190.4h13.6v80.4h-14.7l-45.5-58.7v58.7h-13.6v-80.4h13.6l46.7,60V190.4z"/>
		<path class="st2" d="M487.9,190.4v12.8H445v21.3h38.5v12.1H445v21.5h44.3v12.8h-57.8v-80.4H487.9z"/>
		<path class="st2" d="M570.8,216.6c0,13.3-5.8,21.6-17.4,25.1l21,29.2h-17.2l-19.2-27h-17.8v27h-13.6v-80.4h29.9
			c12.3,0,21,2.1,26.3,6.2C568.1,200.8,570.8,207.4,570.8,216.6z M552.7,227.9c2.8-2.4,4.1-6.2,4.1-11.4c0-5.2-1.4-8.9-4.3-10.8
			c-2.8-2-7.9-2.9-15.2-2.9h-17.2v28.8h16.9C544.8,231.5,550,230.3,552.7,227.9z"/>
		<path class="st2" d="M601.7,252.5l-8,18.3h-14.5l35.4-80.4h14.5l35.4,80.4H650l-8-18.3H601.7z M636.4,240l-14.6-33.1L607.2,240
			H636.4z"/>
		<path class="st2" d="M699.7,202.9v68h-13.6v-68h-24.4v-12.4h62.3v12.4H699.7z"/>
		<path class="st2" d="M803.9,259.7c-8.1,7.9-18.2,11.9-30.1,11.9s-22-4-30.1-11.9c-8.1-7.9-12.2-17.8-12.2-29.7s4.1-21.7,12.2-29.7
			c8.1-7.9,18.2-11.9,30.1-11.9s22,4,30.1,11.9c8.1,7.9,12.2,17.8,12.2,29.7S812,251.8,803.9,259.7z M793.9,209.4
			c-5.5-5.7-12.2-8.5-20.2-8.5c-8,0-14.7,2.8-20.2,8.5c-5.5,5.7-8.2,12.6-8.2,20.6c0,8.1,2.7,15,8.2,20.6c5.5,5.7,12.2,8.5,20.2,8.5
			c8,0,14.7-2.8,20.2-8.5c5.5-5.7,8.2-12.6,8.2-20.6C802.2,222,799.4,215.1,793.9,209.4z"/>
		<path class="st2" d="M897.4,216.6c0,13.3-5.8,21.6-17.4,25.1l21,29.2h-17.2l-19.2-27h-17.8v27h-13.6v-80.4h29.9
			c12.3,0,21,2.1,26.3,6.2C894.7,200.8,897.4,207.4,897.4,216.6z M879.3,227.9c2.8-2.4,4.1-6.2,4.1-11.4c0-5.2-1.4-8.9-4.3-10.8
			c-2.8-2-7.9-2.9-15.2-2.9h-17.2v28.8h16.9C871.4,231.5,876.6,230.3,879.3,227.9z"/>
	</g>
	<g>
		<path class="st2" d="M75.5,233.5H13.8c-7.6,0-13.8-6.2-13.8-13.8V45.4c0-7.6,6.2-13.8,13.8-13.8h61.7c7.6,0,13.8,6.2,13.8,13.8
			v174.1C89.4,227.2,83.1,233.5,75.5,233.5z"/>
	</g>
	<path class="st3" d="M112.5,267H50.9c-5.7,0-10.4-4.7-10.4-10.4V82.4c0-5.7,4.7-10.4,10.4-10.4h61.7c5.7,0,10.4,4.7,10.4,10.4
		v174.1C122.9,262.3,118.2,267,112.5,267z"/>
	<path class="st2" d="M112.5,68.6H88.8c-0.4-7-6.2-12.6-13.3-12.6H37.2c-7.3,0-13.4,6-13.4,13.4v150.1c0,7.3,5.9,13.2,13.1,13.4
		v23.7c0,7.6,6.2,13.8,13.8,13.8h61.7c7.6,0,13.8-6.2,13.8-13.8V82.4C126.3,74.9,120.2,68.6,112.5,68.6z M82.9,142L44,181v-19.6
		l38.9-39V142z M82.9,160.3v22.4l-38.9,39v-22.4L82.9,160.3z M82.9,201.1v18.6c0,4.1-3.3,7.3-7.3,7.3H57L82.9,201.1z M82.9,104.1
		l-38.9,39v-22.7l38.9-39V104.1z M43.9,102.1V82.4c0-3.8,3.1-6.9,6.9-6.9h19.7L43.9,102.1z M29.9,219.6V69.4c0-4.1,3.3-7.3,7.3-7.3
		h38.3c3.8,0,6.9,2.8,7.3,6.6H50.9c-7.6,0-13.8,6.2-13.8,13.8V227C33.1,226.8,29.9,223.6,29.9,219.6z M119.4,256.6
		c0,3.8-3.1,6.9-6.9,6.9H50.9c-3.8,0-6.9-3.1-6.9-6.9V233h31.6c7.3,0,13.4-6,13.4-13.4V75.5h23.7c3.8,0,6.9,3.1,6.9,6.9L119.4,256.6
		L119.4,256.6z"/>
</g>
</svg>
